<svg id="visual" viewBox="0 0 900 600" width="900" height="600" xmlns="http://www.w3.org/2000/svg" xmlns:xlink="http://www.w3.org/1999/xlink" version="1.1"><g stroke-width="1" stroke-linejoin="bevel"><path d="M440 321L326.5 397L446 382Z" fill="#326071" stroke="#326071"></path><path d="M440 321L326.5 285L326.5 397Z" fill="#3f7687" stroke="#3f7687"></path><path d="M326.5 397L432 481L446 382Z" fill="#7dd7dc" stroke="#7dd7dc"></path><path d="M326.5 397L362.5 491L432 481Z" fill="#5ba5b2" stroke="#5ba5b2"></path><path d="M440 321L355.5 223L326.5 285Z" fill="#6bbec7" stroke="#6bbec7"></path><path d="M224 202L245 287L326.5 285Z" fill="#00101c" stroke="#00101c"></path><path d="M326.5 285L245 287L326.5 397Z" fill="#5ba5b2" stroke="#5ba5b2"></path><path d="M326.5 397L241 490L362.5 491Z" fill="#4d8d9d" stroke="#4d8d9d"></path><path d="M245 287L226 401L326.5 397Z" fill="#326071" stroke="#326071"></path><path d="M440 321L425 201L355.5 223Z" fill="#264a5b" stroke="#264a5b"></path><path d="M446 382L539.5 284L440 321Z" fill="#5ba5b2" stroke="#5ba5b2"></path><path d="M440 321L539.5 284L425 201Z" fill="#00101c" stroke="#00101c"></path><path d="M549.5 425L539.5 284L446 382Z" fill="#00101c" stroke="#00101c"></path><path d="M432 481L549.5 425L446 382Z" fill="#326071" stroke="#326071"></path><path d="M226 401L241 490L326.5 397Z" fill="#0f2330" stroke="#0f2330"></path><path d="M355.5 223L224 202L326.5 285Z" fill="#326071" stroke="#326071"></path><path d="M245 287L113.5 301L226 401Z" fill="#7dd7dc" stroke="#7dd7dc"></path><path d="M345.5 87L224 202L355.5 223Z" fill="#00101c" stroke="#00101c"></path><path d="M241 490L333.5 600L362.5 491Z" fill="#0f2330" stroke="#0f2330"></path><path d="M362.5 491L440 600L432 481Z" fill="#00101c" stroke="#00101c"></path><path d="M432 481L569.5 520L549.5 425Z" fill="#0f2330" stroke="#0f2330"></path><path d="M440 600L569.5 520L432 481Z" fill="#7dd7dc" stroke="#7dd7dc"></path><path d="M683 306L573.5 186L539.5 284Z" fill="#1a3645" stroke="#1a3645"></path><path d="M333.5 600L440 600L362.5 491Z" fill="#7dd7dc" stroke="#7dd7dc"></path><path d="M674 402L539.5 284L549.5 425Z" fill="#326071" stroke="#326071"></path><path d="M539.5 284L573.5 186L425 201Z" fill="#0f2330" stroke="#0f2330"></path><path d="M425 201L345.5 87L355.5 223Z" fill="#90f1ef" stroke="#90f1ef"></path><path d="M425 79L345.5 87L425 201Z" fill="#1a3645" stroke="#1a3645"></path><path d="M88.5 186L113.5 301L224 202Z" fill="#326071" stroke="#326071"></path><path d="M224 202L113.5 301L245 287Z" fill="#90f1ef" stroke="#90f1ef"></path><path d="M226 401L95.5 514L241 490Z" fill="#0f2330" stroke="#0f2330"></path><path d="M573.5 186L425 79L425 201Z" fill="#0f2330" stroke="#0f2330"></path><path d="M440 600L548.5 600L569.5 520Z" fill="#5ba5b2" stroke="#5ba5b2"></path><path d="M669 513L549.5 425L569.5 520Z" fill="#4d8d9d" stroke="#4d8d9d"></path><path d="M669 513L674 402L549.5 425Z" fill="#0f2330" stroke="#0f2330"></path><path d="M113.5 301L87.5 386L226 401Z" fill="#6bbec7" stroke="#6bbec7"></path><path d="M241 490L200 600L333.5 600Z" fill="#264a5b" stroke="#264a5b"></path><path d="M320.5 0L235 94L345.5 87Z" fill="#6bbec7" stroke="#6bbec7"></path><path d="M345.5 87L235 94L224 202Z" fill="#6bbec7" stroke="#6bbec7"></path><path d="M95.5 514L200 600L241 490Z" fill="#5ba5b2" stroke="#5ba5b2"></path><path d="M674 402L683 306L539.5 284Z" fill="#6bbec7" stroke="#6bbec7"></path><path d="M652 600L669 513L569.5 520Z" fill="#6bbec7" stroke="#6bbec7"></path><path d="M674 402L807.5 404L683 306Z" fill="#1a3645" stroke="#1a3645"></path><path d="M87.5 386L95.5 514L226 401Z" fill="#00101c" stroke="#00101c"></path><path d="M235 94L88.5 186L224 202Z" fill="#6bbec7" stroke="#6bbec7"></path><path d="M0 310L0 375L87.5 386Z" fill="#3f7687" stroke="#3f7687"></path><path d="M573.5 186L577.5 78L425 79Z" fill="#90f1ef" stroke="#90f1ef"></path><path d="M649 125L577.5 78L573.5 186Z" fill="#00101c" stroke="#00101c"></path><path d="M95.5 514L137.5 600L200 600Z" fill="#264a5b" stroke="#264a5b"></path><path d="M795.5 219L696 198L683 306Z" fill="#7dd7dc" stroke="#7dd7dc"></path><path d="M683 306L696 198L573.5 186Z" fill="#264a5b" stroke="#264a5b"></path><path d="M696 198L649 125L573.5 186Z" fill="#90f1ef" stroke="#90f1ef"></path><path d="M569.5 0L426 0L425 79Z" fill="#6bbec7" stroke="#6bbec7"></path><path d="M425 79L426 0L345.5 87Z" fill="#7dd7dc" stroke="#7dd7dc"></path><path d="M548.5 600L652 600L569.5 520Z" fill="#90f1ef" stroke="#90f1ef"></path><path d="M426 0L320.5 0L345.5 87Z" fill="#4d8d9d" stroke="#4d8d9d"></path><path d="M235 94L90.5 74L88.5 186Z" fill="#5ba5b2" stroke="#5ba5b2"></path><path d="M87.5 386L0 514L95.5 514Z" fill="#4d8d9d" stroke="#4d8d9d"></path><path d="M95.5 514L0 600L137.5 600Z" fill="#4d8d9d" stroke="#4d8d9d"></path><path d="M0 310L87.5 386L113.5 301Z" fill="#6bbec7" stroke="#6bbec7"></path><path d="M320.5 0L244 0L235 94Z" fill="#326071" stroke="#326071"></path><path d="M0 222L0 310L113.5 301Z" fill="#0f2330" stroke="#0f2330"></path><path d="M577.5 78L569.5 0L425 79Z" fill="#00101c" stroke="#00101c"></path><path d="M667 0L569.5 0L577.5 78Z" fill="#6bbec7" stroke="#6bbec7"></path><path d="M667 0L577.5 78L649 125Z" fill="#7dd7dc" stroke="#7dd7dc"></path><path d="M0 103L0 222L88.5 186Z" fill="#326071" stroke="#326071"></path><path d="M88.5 186L0 222L113.5 301Z" fill="#0f2330" stroke="#0f2330"></path><path d="M109.5 0L90.5 74L235 94Z" fill="#4d8d9d" stroke="#4d8d9d"></path><path d="M0 375L0 514L87.5 386Z" fill="#00101c" stroke="#00101c"></path><path d="M797.5 505L674 402L669 513Z" fill="#1a3645" stroke="#1a3645"></path><path d="M797.5 505L807.5 404L674 402Z" fill="#90f1ef" stroke="#90f1ef"></path><path d="M807.5 404L805.5 281L683 306Z" fill="#3f7687" stroke="#3f7687"></path><path d="M696 198L776.5 89L649 125Z" fill="#00101c" stroke="#00101c"></path><path d="M805.5 281L795.5 219L683 306Z" fill="#326071" stroke="#326071"></path><path d="M799.5 600L797.5 505L669 513Z" fill="#6bbec7" stroke="#6bbec7"></path><path d="M244 0L109.5 0L235 94Z" fill="#00101c" stroke="#00101c"></path><path d="M90.5 74L0 103L88.5 186Z" fill="#1a3645" stroke="#1a3645"></path><path d="M0 514L0 600L95.5 514Z" fill="#00101c" stroke="#00101c"></path><path d="M776.5 89L667 0L649 125Z" fill="#3f7687" stroke="#3f7687"></path><path d="M0 0L0 103L90.5 74Z" fill="#6bbec7" stroke="#6bbec7"></path><path d="M900 182L776.5 89L795.5 219Z" fill="#264a5b" stroke="#264a5b"></path><path d="M795.5 219L776.5 89L696 198Z" fill="#0f2330" stroke="#0f2330"></path><path d="M652 600L799.5 600L669 513Z" fill="#326071" stroke="#326071"></path><path d="M900 518L900 391L807.5 404Z" fill="#00101c" stroke="#00101c"></path><path d="M900 518L807.5 404L797.5 505Z" fill="#7dd7dc" stroke="#7dd7dc"></path><path d="M807.5 404L900 391L805.5 281Z" fill="#00101c" stroke="#00101c"></path><path d="M805.5 281L900 275L795.5 219Z" fill="#326071" stroke="#326071"></path><path d="M109.5 0L0 0L90.5 74Z" fill="#00101c" stroke="#00101c"></path><path d="M900 391L900 275L805.5 281Z" fill="#90f1ef" stroke="#90f1ef"></path><path d="M799.5 600L900 518L797.5 505Z" fill="#264a5b" stroke="#264a5b"></path><path d="M900 275L900 182L795.5 219Z" fill="#7dd7dc" stroke="#7dd7dc"></path><path d="M776.5 89L797.5 0L667 0Z" fill="#4d8d9d" stroke="#4d8d9d"></path><path d="M900 82L797.5 0L776.5 89Z" fill="#7dd7dc" stroke="#7dd7dc"></path><path d="M799.5 600L900 600L900 518Z" fill="#326071" stroke="#326071"></path><path d="M900 182L900 82L776.5 89Z" fill="#326071" stroke="#326071"></path><path d="M900 82L900 0L797.5 0Z" fill="#5ba5b2" stroke="#5ba5b2"></path></g></svg>