<?xml version="1.0" standalone="no"?>
<!DOCTYPE svg PUBLIC "-//W3C//DTD SVG 20010904//EN"
 "http://www.w3.org/TR/2001/REC-SVG-20010904/DTD/svg10.dtd">
<svg version="1.0" xmlns="http://www.w3.org/2000/svg"
 width="433.000000pt" height="577.000000pt" viewBox="0 0 433.000000 577.000000"
 preserveAspectRatio="xMidYMid meet">

<g transform="translate(0.000000,577.000000) scale(0.100000,-0.100000)"
fill="#000000" stroke="none">
<path d="M2687 5056 c-59 -16 -80 -35 -105 -94 -11 -26 -36 -73 -55 -105 -20
-32 -38 -77 -42 -100 -4 -23 -20 -63 -36 -88 -18 -29 -36 -80 -49 -137 -18
-87 -55 -178 -88 -214 -9 -11 -29 -18 -49 -18 -31 0 -33 -2 -33 -32 0 -50 47
-182 102 -286 52 -97 68 -159 45 -168 -8 -3 -34 -6 -60 -8 -44 -2 -46 -1 -63
37 -10 22 -24 46 -32 53 -9 10 -10 19 -2 33 7 13 7 22 0 26 -6 3 -10 -4 -11
-17 l0 -23 -16 23 c-26 37 -33 25 -13 -22 38 -89 110 -390 110 -457 0 -19 2
-56 4 -84 4 -36 3 -43 -3 -25 -8 22 -9 22 -11 5 -1 -14 -5 -9 -13 15 -6 19
-15 38 -20 41 -5 4 -12 27 -14 53 -3 26 -10 49 -14 52 -5 3 -9 20 -9 38 0 17
-5 37 -12 44 -7 7 -8 12 -3 12 4 0 1 8 -7 18 -17 19 -35 141 -42 277 -3 63
-11 105 -26 139 -12 26 -25 69 -29 94 -7 50 -31 71 -31 27 0 -27 -25 -85 -38
-85 -4 0 -8 10 -9 23 -4 69 -16 107 -33 107 -10 0 -33 6 -51 14 -19 7 -45 12
-58 10 -13 -2 -39 5 -57 17 -41 25 -42 21 -6 -33 23 -35 28 -54 30 -123 5 -98
-14 -173 -93 -375 -28 -74 -55 -143 -58 -152 -4 -10 -12 -18 -18 -18 -16 0 -4
55 31 139 15 38 32 95 35 125 9 69 -1 146 -19 146 -11 0 -36 -75 -60 -182 -4
-16 -11 -28 -16 -28 -14 0 -12 56 5 180 16 115 18 253 5 285 -7 17 -10 14 -27
-25 -11 -25 -26 -63 -33 -85 -7 -22 -24 -68 -37 -102 -12 -34 -23 -67 -23 -73
0 -10 -77 -181 -100 -222 -6 -10 -10 -22 -10 -27 0 -6 -15 -25 -32 -43 -31
-31 -52 -78 -29 -63 16 9 13 -7 -5 -33 -9 -13 -22 -21 -28 -19 -9 4 -12 -2 -9
-16 3 -16 -5 -28 -26 -42 -29 -19 -30 -21 -15 -44 13 -19 7 -17 -32 13 -40 31
-55 36 -88 34 -32 -2 -43 -9 -53 -28 -7 -14 -23 -27 -35 -31 -14 -3 11 -10 66
-18 48 -6 106 -19 127 -27 34 -14 37 -18 26 -35 -6 -10 -20 -19 -30 -19 -10 0
-15 -4 -12 -10 3 -6 0 -10 -8 -10 -7 0 -39 -33 -71 -73 -31 -41 -72 -82 -89
-93 -35 -21 -93 -44 -118 -48 -8 -1 -30 -12 -47 -25 -18 -12 -36 -20 -41 -17
-10 7 -44 -54 -55 -97 -4 -19 -2 -29 8 -33 9 -3 12 -13 8 -27 -5 -21 -5 -21
21 -4 15 10 27 15 27 12 0 -3 9 -1 20 5 24 13 17 30 -12 30 -17 0 -19 4 -13
28 10 40 21 47 52 32 16 -7 31 -14 36 -14 4 -1 22 -13 41 -28 18 -14 51 -34
72 -43 84 -36 204 -75 229 -75 14 0 36 -5 48 -12 12 -6 37 -12 57 -14 40 -3
52 -6 100 -21 33 -11 144 -26 183 -25 9 1 17 -3 17 -8 0 -5 6 -7 14 -4 8 3 17
0 21 -5 3 -6 10 -9 15 -6 5 3 11 1 15 -5 3 -5 17 -10 31 -10 14 0 38 -7 55
-15 23 -12 47 -14 107 -10 77 6 191 29 221 45 46 23 143 43 169 34 30 -10 41
-46 21 -70 -6 -8 -12 -32 -13 -54 -1 -37 -3 -40 -29 -40 -18 0 -26 -4 -21 -11
10 -16 -15 -29 -58 -29 -39 0 -46 8 -26 28 18 18 2 15 -60 -14 -31 -14 -68
-30 -81 -35 -36 -14 -19 -21 18 -8 27 9 35 9 42 -2 7 -11 11 -10 24 6 15 18
16 18 11 2 -4 -13 0 -20 14 -24 28 -7 17 -19 -43 -48 -29 -13 -44 -25 -34 -25
10 0 15 -5 12 -10 -9 -14 -64 -10 -98 7 -17 9 -62 14 -113 15 -64 0 -97 5
-132 20 -25 12 -64 21 -86 21 -22 0 -55 8 -73 18 -19 11 -45 19 -59 19 -14 0
-37 6 -52 14 -15 8 -64 24 -109 36 -45 13 -80 26 -78 31 3 4 0 11 -6 15 -8 5
-9 3 -4 -6 6 -10 4 -12 -11 -6 -10 4 -27 9 -38 12 -10 2 -30 11 -43 19 -14 9
-45 17 -69 18 -24 1 -46 8 -49 15 -2 6 -20 12 -40 12 -19 0 -35 5 -35 11 0 6
8 8 17 5 10 -3 1 9 -19 27 -38 34 -130 67 -188 67 -17 0 -30 5 -30 12 0 8 -3
9 -10 2 -12 -12 8 -94 29 -117 10 -10 32 -25 51 -35 27 -14 36 -26 46 -67 7
-27 13 -62 14 -77 0 -16 5 -28 10 -28 6 0 10 -7 10 -16 0 -23 72 -86 82 -71 6
9 11 8 21 -3 14 -18 67 -43 75 -36 7 8 -1 21 -77 131 -38 55 -68 102 -65 104
2 2 34 -11 70 -30 65 -33 68 -36 91 -98 31 -85 37 -91 81 -84 20 3 38 7 40 8
1 1 -10 23 -24 49 -14 26 -24 49 -21 52 3 3 22 1 44 -5 21 -5 85 -17 143 -26
58 -9 107 -20 110 -25 3 -4 14 -9 24 -11 10 -2 24 -13 30 -24 6 -11 12 -22 13
-24 2 -2 8 1 15 7 7 5 27 8 43 5 17 -3 51 -5 76 -4 26 1 59 -3 74 -9 19 -7 31
-7 40 0 15 13 45 3 45 -16 0 -7 -12 -33 -27 -58 -27 -44 -29 -45 -83 -48 -52
-3 -55 -4 -53 -28 3 -44 -6 -70 -26 -70 -10 0 -21 -9 -24 -20 -3 -11 -12 -20
-20 -20 -9 0 -18 -9 -22 -19 -4 -13 -18 -20 -43 -23 -20 -3 -39 -2 -42 1 -3 3
-18 13 -35 21 -16 8 -36 21 -43 28 -7 6 -37 12 -65 13 -63 1 -99 10 -105 27
-4 14 54 17 90 3 35 -13 138 -2 138 15 0 8 5 14 10 14 6 0 10 9 10 21 0 11 5
17 10 14 12 -8 103 5 95 13 -3 3 -18 8 -33 10 -15 2 -31 7 -37 13 -14 14 -25
11 -25 -6 0 -8 -4 -15 -10 -15 -5 0 -10 7 -10 16 0 13 -7 15 -36 9 -24 -4 -34
-3 -29 4 3 6 -1 11 -11 11 -11 0 -15 6 -11 19 5 22 -5 26 -104 36 -52 6 -73 3
-99 -10 -18 -9 -43 -15 -56 -12 -15 3 -24 0 -24 -9 0 -20 -15 -25 -48 -13 -21
7 -28 15 -25 28 6 23 -39 43 -81 36 -19 -4 -48 0 -71 9 -22 8 -85 27 -140 41
-55 15 -117 33 -139 41 -21 7 -89 20 -150 29 -61 8 -136 20 -166 25 -30 5
-107 12 -170 15 -63 3 -132 8 -152 11 l-38 4 0 -416 c0 -391 1 -415 18 -410 9
2 37 8 61 11 24 4 59 14 77 21 19 8 67 14 110 14 42 0 93 4 113 10 59 16 406
30 449 18 20 -6 75 -11 122 -12 83 -1 85 0 88 24 5 29 33 55 122 114 55 36
244 126 265 126 13 0 36 30 30 40 -10 16 11 12 25 -5 6 -7 33 -17 58 -21 88
-12 390 -104 557 -169 236 -92 298 -126 316 -173 28 -73 -62 -229 -163 -283
-17 -9 -14 -2 15 29 20 23 37 45 37 50 -1 21 -32 55 -96 106 -39 31 -78 71
-87 91 -10 22 -24 35 -36 35 -10 0 -35 7 -55 15 -20 9 -41 13 -47 10 -13 -9
-105 23 -120 42 -50 59 -201 115 -215 78 -6 -16 -33 -19 -72 -8 -18 4 -21 8
-10 15 10 7 10 11 1 14 -7 3 -9 12 -6 20 3 8 -4 18 -18 24 -32 13 -69 45 -69
60 0 28 -156 -24 -255 -84 -83 -50 -155 -106 -155 -120 0 -36 50 -54 211 -75
37 -5 92 -20 124 -35 32 -14 73 -26 92 -26 30 0 90 -22 208 -76 35 -16 140
-53 173 -61 12 -3 22 -13 22 -23 0 -10 21 -27 58 -46 77 -38 229 -141 236
-159 3 -8 13 -15 22 -15 24 0 92 -52 98 -76 3 -12 24 -34 47 -50 23 -16 52
-45 64 -65 13 -20 37 -51 55 -70 17 -19 38 -47 47 -64 9 -16 31 -47 49 -67 18
-20 40 -61 49 -90 8 -29 26 -69 40 -90 14 -21 30 -61 36 -89 6 -29 18 -67 25
-85 8 -18 14 -46 14 -62 0 -16 7 -45 15 -65 8 -19 15 -52 15 -73 1 -93 -13
-252 -26 -292 -8 -23 -14 -45 -14 -47 0 -3 251 -5 558 -4 l557 0 -135 130
c-74 72 -272 247 -440 389 -168 141 -334 288 -370 325 -36 37 -102 104 -147
149 l-81 82 92 0 c77 0 98 4 132 23 l41 23 91 -46 c103 -52 160 -60 169 -26 3
11 8 20 11 20 4 0 29 -22 57 -49 27 -27 145 -119 260 -205 261 -194 345 -260
453 -354 138 -120 177 -128 289 -55 69 46 72 50 73 87 l0 38 -27 -17 c-87 -57
-92 -59 -128 -42 -18 9 -44 31 -58 49 -37 49 -187 295 -322 529 -97 167 -134
221 -204 297 -47 52 -99 111 -116 132 -16 20 -90 110 -163 200 -72 89 -130
166 -127 171 6 9 109 71 191 113 28 14 60 35 72 46 12 11 26 20 32 20 5 0 10
3 10 8 0 4 12 13 28 19 134 59 125 52 118 86 -9 45 -55 107 -92 124 -32 16
-32 15 -113 -46 -45 -33 -84 -61 -87 -61 -2 0 -64 -37 -136 -81 -182 -114
-170 -111 -256 -58 -40 24 -72 50 -72 57 0 7 -5 10 -11 6 -6 -3 -21 -2 -32 4
-12 6 -42 19 -67 31 l-45 21 0 72 c0 65 2 73 20 76 47 9 105 90 105 147 0 30
25 34 40 5 6 -11 20 -20 30 -20 18 0 20 7 20 78 0 68 3 83 25 112 14 19 25 37
25 41 0 15 -32 39 -52 39 -12 0 -30 8 -40 17 -15 14 -21 15 -27 4 -6 -8 -17
-11 -31 -6 -19 6 -21 12 -15 43 l6 37 -19 -35 c-22 -40 -41 -47 -84 -29 -21 9
-28 17 -25 31 3 10 1 16 -4 12 -5 -3 -14 -2 -20 2 -6 3 -32 8 -57 10 -25 2
-47 6 -49 8 -7 7 36 86 47 86 5 0 32 -9 60 -20 l50 -20 0 99 c0 108 14 166 37
157 8 -3 16 -6 17 -6 1 0 1 -53 -1 -117 l-3 -118 19 35 c11 19 20 42 21 51 0
9 7 22 15 29 21 18 18 59 -7 100 -19 30 -22 49 -22 130 0 52 5 148 12 212 18
175 13 188 -96 303 -91 95 -102 117 -61 130 28 9 117 72 174 123 28 25 66 55
85 68 19 13 46 42 60 64 31 50 46 51 141 5 85 -40 84 -40 150 -19 36 12 53 24
60 42 11 29 3 337 -12 429 -20 128 -94 303 -121 287 -6 -4 -7 2 -3 15 5 17 -3
30 -39 65 -25 24 -46 49 -46 56 0 8 -3 10 -7 7 -3 -4 -25 4 -49 18 -23 14 -52
25 -63 25 -11 0 -22 4 -26 9 -10 17 -112 41 -172 40 -32 0 -79 -6 -106 -13z
m259 -73 c-10 -10 -19 5 -10 18 6 11 8 11 12 0 2 -7 1 -15 -2 -18z m-86 7 c0
-5 -2 -10 -4 -10 -3 0 -8 5 -11 10 -3 6 -1 10 4 10 6 0 11 -4 11 -10z m50 -24
c-7 -7 -13 -7 -20 0 -6 6 -3 10 10 10 13 0 16 -4 10 -10z m-140 -16 c0 -5 -5
-10 -11 -10 -5 0 -7 5 -4 10 3 6 8 10 11 10 2 0 4 -4 4 -10z m-110 -84 c0 -3
-4 -8 -10 -11 -5 -3 -10 -1 -10 4 0 6 5 11 10 11 6 0 10 -2 10 -4z m-30 -26
c0 -5 -4 -10 -10 -10 -5 0 -10 5 -10 10 0 6 5 10 10 10 6 0 10 -4 10 -10z m29
-49 c9 -6 5 -8 -13 -8 -15 0 -29 3 -32 8 -7 11 27 11 45 0z m401 -11 c0 -5 -5
-10 -11 -10 -5 0 -7 5 -4 10 3 6 8 10 11 10 2 0 4 -4 4 -10z m-412 -47 c0 -32
-1 -35 -8 -15 -8 18 -5 52 4 52 2 0 3 -17 4 -37z m72 27 c0 -5 -2 -10 -4 -10
-3 0 -8 5 -11 10 -3 6 -1 10 4 10 6 0 11 -4 11 -10z m-15 -50 c3 -5 2 -10 -4
-10 -5 0 -13 5 -16 10 -3 6 -2 10 4 10 5 0 13 -4 16 -10z m-10 -41 c11 -16 1
-19 -13 -3 -7 8 -8 14 -3 14 5 0 13 -5 16 -11z m311 -1 c-3 -7 -7 -25 -10 -40
-4 -16 -11 -28 -16 -28 -15 0 -12 40 3 41 10 0 10 2 0 6 -18 7 -16 21 5 26 9
3 18 5 19 6 1 0 1 -5 -1 -11z m-508 -33 c2 -38 -4 -42 -32 -20 -19 14 -19 15
-1 35 25 28 32 25 33 -15z m32 -35 c0 -11 -4 -20 -8 -20 -4 0 -8 9 -9 20 -1
11 2 20 8 20 5 0 9 -9 9 -20z m-45 -29 c-3 -12 0 -21 10 -25 13 -4 14 -10 5
-26 -13 -24 -33 -16 -25 10 4 12 -1 19 -17 24 -23 6 -23 7 -4 21 27 20 39 19
31 -4z m450 0 c-3 -6 -11 -11 -17 -11 -6 0 -6 6 2 15 14 17 26 13 15 -4z
m-135 -61 c0 -5 -2 -10 -4 -10 -3 0 -8 5 -11 10 -3 6 -1 10 4 10 6 0 11 -4 11
-10z m-159 -52 c26 -97 28 -142 9 -189 -11 -25 -18 -29 -49 -29 -31 0 -38 5
-49 30 -15 33 -36 39 -50 13 -9 -14 -10 -14 -16 5 -10 30 0 42 33 42 23 0 30
5 33 25 3 14 2 28 -3 31 -12 7 3 35 41 76 19 20 36 37 37 37 1 1 7 -18 14 -41z
m-206 22 c3 -5 -3 -10 -15 -10 -12 0 -18 5 -15 10 3 6 10 10 15 10 5 0 12 -4
15 -10z m405 -339 c0 -3 -11 -19 -23 -35 l-24 -29 -21 21 c-27 27 -27 27 -1
51 17 16 26 18 45 9 13 -6 24 -14 24 -17z m-250 -60 c0 -14 -18 -23 -30 -16
-6 4 -8 11 -5 16 8 12 35 12 35 0z m154 -7 c9 -8 14 -20 11 -25 -8 -11 -45 12
-45 28 0 18 15 16 34 -3z m-104 -84 c13 -8 13 -10 -2 -10 -9 0 -20 5 -23 10
-8 13 5 13 25 0z m-18 -30 c10 -8 18 -24 18 -35 -1 -19 -2 -19 -20 4 -11 13
-20 19 -20 15 0 -11 -20 18 -20 29 0 10 21 4 42 -13z m-535 -199 c-6 -61 -33
-228 -66 -411 -42 -228 -47 -265 -31 -255 7 4 8 -10 5 -40 -5 -40 -4 -46 11
-43 13 2 18 -4 19 -27 1 -16 2 -46 3 -65 l3 -35 15 35 c9 19 16 53 15 76 -1
28 5 48 19 64 11 13 21 36 21 52 2 30 2 35 12 58 3 8 8 29 12 45 10 46 66 156
76 149 5 -3 9 -48 9 -100 0 -77 3 -94 15 -94 11 0 15 12 15 45 0 38 3 45 19
45 11 0 22 6 25 13 3 6 4 -1 3 -18 -2 -36 26 -43 31 -7 5 31 45 57 69 44 15
-9 23 -5 40 21 12 18 29 57 38 87 23 73 38 110 47 110 3 0 4 -8 2 -17 -33
-156 -76 -295 -102 -334 -9 -15 -38 -50 -64 -78 -27 -29 -48 -57 -48 -63 0 -6
-16 -28 -35 -49 -19 -22 -35 -44 -35 -49 0 -6 -6 -10 -14 -10 -7 0 -19 -12
-25 -27 -22 -52 -84 -110 -136 -127 -46 -16 -56 -16 -194 4 -164 24 -217 44
-214 78 3 26 -12 29 -26 5 -6 -10 -11 -13 -11 -7 0 8 -13 10 -34 7 -42 -5 -94
16 -151 63 -36 29 -45 43 -45 68 0 47 41 176 60 186 9 5 43 11 76 14 69 7 130
24 165 47 22 15 24 23 21 77 -2 61 21 125 70 192 10 14 29 62 42 107 27 88
101 227 117 218 5 -4 6 -11 3 -17 -3 -5 -7 -41 -8 -78 l-2 -68 19 31 c24 40
67 79 82 73 7 -2 17 12 25 32 7 21 18 43 24 51 15 20 20 -6 13 -78z m288 -22
c-7 -10 -35 -1 -35 11 0 5 9 6 20 3 11 -3 17 -9 15 -14z m135 11 c0 -5 -13
-16 -29 -25 -36 -18 -73 -64 -100 -125 -11 -25 -21 -38 -21 -30 0 8 11 39 25
68 30 64 29 62 9 62 -24 0 -6 20 19 21 12 0 36 9 52 19 35 21 45 24 45 10z
m-153 -277 c-2 -16 -4 -5 -4 22 0 28 2 40 4 28 2 -13 2 -35 0 -50z m-22 -116
c-10 -29 -19 -65 -21 -81 -2 -16 -7 -32 -10 -35 -10 -10 2 69 22 139 10 36 20
57 22 47 2 -10 -4 -42 -13 -70z m-998 -50 c3 -23 2 -37 -5 -37 -5 0 -9 10 -9
23 1 12 -3 33 -7 47 -6 19 -5 22 3 14 7 -6 14 -27 18 -47z m1110 -413 c-3 -3
-12 -4 -19 -1 -8 3 -5 6 6 6 11 1 17 -2 13 -5z m89 -261 c-10 -10 -19 5 -10
18 6 11 8 11 12 0 2 -7 1 -15 -2 -18z m84 -92 c52 -1 43 -22 -11 -24 -19 -1
-36 -5 -39 -9 -5 -7 -100 -20 -100 -14 0 2 8 12 18 23 18 21 45 31 72 27 8 -1
35 -3 60 -3z m-285 -71 c3 -6 -5 -10 -19 -10 -14 0 -28 5 -31 10 -3 6 5 10 19
10 14 0 28 -4 31 -10z m-125 -60 c0 -12 -8 -12 -35 0 -18 8 -17 9 8 9 15 1 27
-3 27 -9z m354 -9 c3 -4 -6 -6 -19 -3 -14 2 -25 6 -25 8 0 8 39 4 44 -5z m82
-73 c4 -4 -1 -29 -11 -55 -10 -27 -18 -56 -17 -65 0 -10 -3 -18 -8 -18 -5 0
-14 -17 -21 -37 -14 -44 -26 -54 -54 -48 -11 3 -37 7 -58 9 -22 2 -46 12 -58
25 -25 27 -58 35 -92 22 -26 -10 -27 -9 -21 13 3 13 -2 40 -10 61 -9 21 -16
53 -16 72 l0 34 179 -3 c99 -2 183 -6 187 -10z m-1276 -12 c0 -2 -7 -6 -15
-10 -8 -3 -15 -1 -15 4 0 6 7 10 15 10 8 0 15 -2 15 -4z m-117 -31 c-6 -17
-29 -20 -38 -6 -6 11 25 32 37 25 4 -3 5 -11 1 -19z m822 -9 c9 -11 12 -31 8
-50 -5 -27 -4 -29 8 -16 8 8 13 13 12 11 -4 -7 39 -41 52 -41 9 0 10 11 5 40
-8 45 -5 47 28 21 25 -22 29 -33 8 -25 -9 3 -15 -4 -18 -20 -6 -28 22 -66 48
-66 9 0 14 -6 11 -12 -2 -7 -9 -12 -15 -11 -5 1 -13 -4 -16 -13 -3 -8 -2 -12
4 -9 6 3 10 1 10 -4 0 -6 5 -11 11 -11 5 0 8 4 4 9 -3 5 -1 12 4 15 5 3 11 -3
14 -14 3 -11 1 -18 -3 -15 -5 3 -11 -3 -15 -14 -3 -11 -13 -22 -22 -25 -12 -5
-13 -3 -6 6 8 9 3 20 -15 38 -24 24 -24 24 -9 1 16 -25 12 -56 -6 -44 -6 4 -8
0 -4 -9 4 -12 1 -14 -14 -11 -10 3 -26 0 -34 -7 -11 -9 -15 -9 -15 -1 0 7 -4
9 -10 6 -5 -3 -10 0 -10 7 0 7 -13 14 -30 15 -28 2 -42 -11 -19 -19 5 -2 -2
-14 -16 -28 l-26 -25 10 28 c7 18 7 26 1 22 -6 -3 -10 -1 -10 4 0 6 -7 11 -15
11 -9 0 -15 -9 -15 -21 0 -18 -4 -20 -27 -14 -51 12 -94 37 -89 51 3 7 -1 20
-9 27 -7 8 -10 19 -5 26 10 16 1 53 -11 45 -15 -9 -10 70 6 92 12 19 77 58 97
59 3 0 9 3 12 6 4 4 32 6 62 5 42 -1 59 -6 69 -20z m-707 -31 c-3 -3 -9 2 -12
12 -6 14 -5 15 5 6 7 -7 10 -15 7 -18z m2172 -40 c0 -7 -28 -32 -62 -55 -46
-29 -69 -39 -87 -35 -18 5 -22 3 -18 -10 5 -11 -15 -29 -69 -65 -42 -28 -80
-50 -85 -50 -5 0 -9 -4 -9 -10 0 -5 -5 -10 -12 -10 -6 0 -44 -21 -85 -46 -71
-44 -93 -48 -93 -18 0 9 5 12 12 8 6 -4 16 -1 22 7 6 8 83 59 170 114 88 54
191 120 230 146 69 47 86 51 86 24z m-1297 -33 c16 -17 16 -19 0 -17 -18 1
-23 6 -23 25 0 14 5 13 23 -8z m557 -100 c0 -13 -12 -22 -22 -16 -10 6 -1 24
13 24 5 0 9 -4 9 -8z m-387 -73 c-4 -4 -14 -5 -21 -1 -9 6 -8 13 6 30 l17 21
3 -20 c2 -12 0 -25 -5 -30z m377 21 c0 -5 -7 -7 -15 -4 -8 4 -15 8 -15 10 0 2
7 4 15 4 8 0 15 -4 15 -10z m-521 -31 c-24 -15 -30 -10 -11 9 9 10 19 14 21 9
2 -5 -3 -13 -10 -18z m181 -8 c5 7 12 10 15 7 12 -12 -6 -28 -31 -28 -22 0
-23 2 -12 20 11 18 13 18 17 4 2 -14 5 -14 11 -3z m455 -18 c-2 -10 -4 -20 -5
-23 -1 -7 -29 43 -30 53 0 4 9 3 19 -3 11 -5 18 -18 16 -27z m48 7 c3 -11 0
-20 -6 -20 -7 0 -13 11 -13 25 -2 28 11 25 19 -5z m-562 -3 c-13 -13 -26 -3
-16 12 3 6 11 8 17 5 6 -4 6 -10 -1 -17z m-257 -12 c-5 -11 1 -15 20 -15 37 0
32 -17 -6 -24 -35 -6 -87 4 -88 17 0 4 0 12 0 17 0 18 40 11 41 -7 0 -14 3
-13 11 5 12 24 31 31 22 7z m278 -10 c0 -5 -5 -11 -11 -13 -6 -2 -11 4 -11 13
0 9 5 15 11 13 6 -2 11 -8 11 -13z m-172 -8 c0 -7 -9 -13 -20 -14 -25 -2 -27
14 -2 20 9 3 18 5 20 6 1 0 2 -5 2 -12z m396 -58 c164 -83 180 -106 61 -86
-33 5 -37 4 -26 -9 21 -25 0 -28 -33 -4 -28 21 -32 21 -43 6 -18 -24 -26 -20
-19 9 5 19 2 25 -10 25 -9 0 -16 5 -16 11 0 7 -11 9 -29 6 -34 -7 -45 1 -30
20 9 10 8 13 -5 13 -9 0 -16 7 -16 15 0 9 -6 15 -13 13 -13 -3 -17 3 -17 28 0
8 5 12 10 9 6 -3 10 -1 10 4 0 23 41 9 176 -60z m-336 31 c0 -5 -4 -10 -10
-10 -5 0 -10 5 -10 10 0 6 5 10 10 10 6 0 10 -4 10 -10z m80 -10 c0 -5 -2 -10
-4 -10 -3 0 -8 5 -11 10 -3 6 -1 10 4 10 6 0 11 -4 11 -10z m-930 -22 c0 -5
-9 -12 -21 -15 -16 -4 -17 -8 -7 -14 10 -7 10 -9 0 -9 -15 0 -26 25 -19 44 6
16 47 10 47 -6z m945 -8 c3 -5 1 -10 -4 -10 -6 0 -11 5 -11 10 0 6 2 10 4 10
3 0 8 -4 11 -10z m605 -3 c0 -16 -51 -47 -78 -47 -24 0 -38 29 -17 36 8 4 22
4 30 0 8 -3 15 -1 15 4 0 7 17 15 43 19 4 0 7 -5 7 -12z m-1384 -38 c10 -17
-13 -36 -27 -22 -12 12 -4 33 11 33 5 0 12 -5 16 -11z m834 1 c0 -5 -4 -10
-10 -10 -5 0 -10 5 -10 10 0 6 5 10 10 10 6 0 10 -4 10 -10z m-33 -35 c0 -18
-19 -15 -25 3 -2 7 3 12 11 12 7 0 14 -7 14 -15z m200 -58 c14 0 27 -27 17
-36 -3 -3 -10 2 -15 12 -13 23 -40 23 -32 0 4 -12 -3 -8 -20 10 -30 32 -41 34
-32 8 5 -18 -21 -39 -33 -26 -3 3 1 5 8 5 9 0 8 5 -4 19 -12 13 -14 21 -6 26
15 10 3 24 -20 22 -14 -1 -20 -9 -20 -24 0 -13 -4 -23 -10 -23 -17 0 -11 35
10 58 l20 21 62 -36 c34 -20 68 -36 75 -36z m201 44 c3 -8 -1 -12 -9 -9 -7 2
-15 10 -17 17 -3 8 1 12 9 9 7 -2 15 -10 17 -17z m-98 -11 c0 -5 -4 -10 -10
-10 -5 0 -10 5 -10 10 0 6 5 10 10 10 6 0 10 -4 10 -10z m-1230 -25 c0 -16 -6
-25 -15 -25 -15 0 -21 31 -8 43 13 14 23 6 23 -18z m1130 15 c0 -5 -5 -10 -11
-10 -5 0 -7 5 -4 10 3 6 8 10 11 10 2 0 4 -4 4 -10z m-1000 -10 c0 -5 -7 -10
-15 -10 -8 0 -15 5 -15 10 0 6 7 10 15 10 8 0 15 -4 15 -10z m128 -8 c2 -7 -2
-10 -12 -6 -9 3 -16 11 -16 16 0 13 23 5 28 -10z m999 -8 c-3 -3 -12 -4 -19
-1 -8 3 -5 6 6 6 11 1 17 -2 13 -5z m208 -3 c3 -5 1 -12 -5 -16 -5 -3 -10 1
-10 9 0 18 6 21 15 7z m-135 -21 c0 -11 -4 -20 -10 -20 -5 0 -10 9 -10 20 0
11 5 20 10 20 6 0 10 -9 10 -20z m-70 -5 c0 -8 -4 -15 -9 -15 -13 0 -22 16
-14 24 11 11 23 6 23 -9z m-66 -1 c9 -3 16 -12 16 -20 0 -12 -4 -12 -20 -2
-30 19 -27 34 4 22z m-104 -24 c0 -5 -4 -10 -10 -10 -5 0 -10 5 -10 10 0 6 5
10 10 10 6 0 10 -4 10 -10z m88 -19 c3 -9 -5 -11 -24 -9 -15 2 -29 9 -32 16
-3 9 4 12 24 9 15 -2 30 -9 32 -16z m72 5 c0 -11 -19 -15 -25 -6 -3 5 1 10 9
10 9 0 16 -2 16 -4z m40 -6 c0 -5 -2 -10 -4 -10 -3 0 -8 5 -11 10 -3 6 -1 10
4 10 6 0 11 -4 11 -10z m60 -26 c0 -16 -2 -16 -24 -8 -13 5 -14 9 -5 20 13 16
29 9 29 -12z m-200 -4 c0 -5 -4 -10 -9 -10 -6 0 -13 5 -16 10 -3 6 1 10 9 10
9 0 16 -4 16 -10z m140 -32 c12 -4 10 -7 -8 -17 -26 -14 -42 -7 -42 18 0 25
13 35 25 18 5 -7 17 -16 25 -19z m253 -382 c26 -20 21 -26 -13 -15 -16 6 -27
15 -24 20 7 12 16 11 37 -5z m-568 -87 c-29 -11 -32 -11 -32 4 0 9 9 12 26 9
23 -5 24 -6 6 -13z"/>
<path d="M1972 3537 c-15 -26 -28 -37 -40 -35 -18 4 -52 -29 -73 -71 -7 -14
-28 -45 -46 -68 -36 -45 -63 -101 -63 -130 0 -43 -112 -275 -152 -315 -26 -26
-22 -39 10 -32 45 10 52 13 52 24 0 6 -5 8 -12 4 -6 -4 -8 -3 -4 4 3 6 20 13
36 17 24 5 38 21 69 73 21 37 51 99 66 137 36 90 117 259 127 263 4 2 15 20
24 40 9 20 20 46 26 58 5 12 8 32 6 45 -3 22 -4 21 -26 -14z m-16 -69 c-3 -7
-9 -21 -12 -30 -8 -21 -24 -24 -24 -4 0 26 12 46 27 46 8 0 12 -6 9 -12z"/>
<path d="M2315 3173 c-6 -27 3 -73 16 -73 5 0 9 6 9 13 0 8 9 22 20 32 20 18
27 44 13 46 -5 0 -18 2 -30 3 -15 2 -23 -4 -28 -21z"/>
<path d="M2080 2171 c0 -6 9 -9 20 -8 11 1 20 5 20 9 0 4 -9 8 -20 8 -11 0
-20 -4 -20 -9z"/>
<path d="M2166 2135 c4 -8 11 -15 16 -15 6 0 5 6 -2 15 -7 8 -14 15 -16 15 -2
0 -1 -7 2 -15z"/>
<path d="M2120 2030 c-8 -5 -11 -12 -7 -16 4 -4 15 0 24 9 18 18 8 23 -17 7z"/>
<path d="M1698 4274 c-3 -3 7 -42 23 -87 31 -91 38 -130 41 -259 2 -47 6 -84
9 -82 15 9 40 110 46 182 5 66 2 85 -15 123 -21 44 -95 132 -104 123z"/>
<path d="M2110 4219 c0 -13 52 -164 60 -175 5 -6 14 -28 18 -50 8 -32 11 -35
17 -20 6 13 -3 41 -28 92 -21 41 -37 82 -37 92 -1 16 -29 75 -30 61z"/>
<path d="M1007 3393 c-4 -3 -7 -16 -6 -27 0 -14 2 -16 6 -6 3 8 12 21 21 28
14 10 14 12 1 12 -9 0 -19 -3 -22 -7z"/>
<path d="M2842 2831 c-7 -19 -10 -36 -8 -38 8 -8 27 38 24 55 -3 11 -8 5 -16
-17z"/>
<path d="M928 2844 c-28 -8 -21 -20 20 -32 61 -18 112 -25 112 -16 -1 29 -89
60 -132 48z"/>
<path d="M2716 2791 c-3 -5 1 -11 9 -15 8 -3 15 -1 15 4 0 13 -18 22 -24 11z"/>
<path d="M1974 2549 c-2 -5 5 -13 16 -19 21 -11 60 1 60 19 0 11 -69 10 -76 0z"/>
<path d="M1582 2323 c-8 -13 -4 -20 15 -30 34 -18 42 -16 16 2 -13 9 -20 22
-17 30 8 21 -3 19 -14 -2z"/>
<path d="M1515 2310 c3 -5 15 -10 26 -10 10 0 19 5 19 10 0 6 -12 10 -26 10
-14 0 -23 -4 -19 -10z"/>
<path d="M3694 2129 c-3 -6 -4 -12 -3 -13 2 -2 94 -42 203 -90 154 -67 208
-86 235 -84 35 4 33 5 -54 47 -49 24 -130 58 -180 77 -49 18 -113 42 -142 53
-34 14 -54 17 -59 10z"/>
<path d="M590 1610 c-46 -25 -149 -131 -132 -137 22 -8 13 -24 -11 -18 -33 9
-147 -96 -129 -118 10 -12 9 -16 -3 -21 -8 -3 -15 -1 -15 4 0 18 -15 10 -65
-35 -27 -25 -92 -80 -142 -123 l-93 -77 0 -452 c0 -249 2 -453 5 -453 2 0 15
5 29 11 20 10 30 9 51 -5 31 -20 32 -50 2 -80 -12 -12 -37 -41 -56 -64 l-33
-42 64 0 c67 0 81 5 91 33 4 9 17 17 30 17 25 0 103 46 126 74 8 9 30 24 50
32 37 16 71 42 71 55 0 4 -9 11 -20 14 -27 9 -25 23 5 31 13 3 27 15 30 25 7
20 20 25 30 10 3 -5 31 -7 63 -4 48 5 69 15 130 57 144 100 171 121 192 143
11 13 37 32 58 42 20 10 48 31 61 45 13 14 44 35 67 47 24 11 63 39 87 62 25
23 97 87 161 142 64 55 116 103 116 108 0 4 -13 15 -29 25 -32 18 -61 60 -54
79 6 16 -11 32 -68 66 -50 29 -61 44 -52 76 4 16 -1 22 -23 27 -16 4 -35 12
-42 17 -8 6 -34 12 -59 12 -33 2 -51 9 -71 28 -67 66 -90 82 -103 76 -8 -4
-21 -10 -29 -13 -8 -4 -40 -20 -70 -36 -65 -36 -74 -37 -94 -8 -14 19 -18 20
-40 8 -21 -11 -28 -11 -41 0 -14 12 -14 15 1 31 45 50 71 240 38 287 -18 27
-38 27 -84 2z m-45 -130 c3 -5 1 -10 -4 -10 -6 0 -11 5 -11 10 0 6 2 10 4 10
3 0 8 -4 11 -10z m-214 -205 c-1 -15 -24 -12 -29 3 -3 9 2 13 12 10 10 -1 17
-7 17 -13z m695 -69 c7 -18 -14 -58 -27 -51 -10 7 -12 48 -2 58 11 11 23 8 29
-7z m144 -206 c0 -11 -6 -20 -14 -20 -18 0 -29 16 -21 30 11 18 35 11 35 -10z
m-42 -121 c-2 -6 -8 -10 -13 -10 -5 0 -11 4 -13 10 -2 6 4 11 13 11 9 0 15 -5
13 -11z m-268 -97 c0 -13 -50 -82 -60 -82 -19 0 -10 35 15 63 25 26 45 35 45
19z m-219 -188 c10 -13 10 -17 -2 -25 -30 -19 -57 -3 -45 26 7 20 30 19 47 -1z
m-391 -95 c0 -6 -13 -16 -29 -22 -26 -9 -28 -13 -18 -34 7 -16 7 -26 -2 -37
-7 -8 -9 -25 -5 -42 9 -36 -17 -58 -51 -42 -29 13 -33 23 -27 71 6 51 87 140
114 126 10 -5 18 -14 18 -20z m59 -48 c12 -8 12 -12 2 -25 -16 -19 -31 -12
-31 15 0 21 7 23 29 10z"/>
<path d="M1326 1205 c-22 -19 -46 -35 -53 -35 -20 0 -16 -14 15 -43 29 -28 42
-33 42 -18 0 5 16 32 35 61 52 77 29 96 -39 35z"/>
<path d="M1458 1025 c-20 -27 -22 -41 -9 -50 10 -6 46 27 62 58 16 28 -32 21
-53 -8z"/>
<path d="M1690 995 c0 -38 -38 -92 -72 -104 -44 -16 -53 -14 -88 15 -36 31
-61 21 -38 -15 15 -25 4 -37 -45 -48 -18 -4 -40 -21 -58 -46 -17 -23 -51 -56
-77 -74 -26 -18 -99 -84 -162 -146 -154 -151 -324 -297 -345 -297 -12 0 -128
-73 -187 -117 -31 -24 -89 -61 -130 -83 -40 -22 -84 -49 -98 -60 l-25 -20 482
0 c353 0 489 3 508 12 21 9 31 9 46 0 10 -7 55 -12 103 -12 l84 0 5 30 c11 55
107 51 107 -5 l0 -25 314 0 314 0 7 28 c4 15 11 70 15 122 8 90 7 97 -16 132
-13 21 -24 46 -24 57 0 25 -20 71 -32 71 -4 0 -8 7 -8 17 0 9 -14 29 -31 44
-28 25 -30 30 -24 73 4 25 11 46 16 46 17 0 9 37 -11 55 -19 17 -21 17 -44 -8
-29 -31 -63 -34 -107 -12 -25 13 -28 19 -22 43 12 45 6 72 -21 95 -14 13 -26
26 -26 30 0 26 -45 107 -59 107 -18 0 -43 25 -54 53 -3 9 -15 17 -26 17 -11 0
-23 5 -26 10 -3 6 -14 10 -23 10 -9 0 -28 6 -42 13 -14 7 -37 14 -52 15 -24 1
-28 -2 -28 -23z m162 -295 c16 -23 30 -30 54 -30 18 0 35 -4 39 -9 11 -19 17
-121 7 -121 -18 0 -53 52 -47 70 7 22 -18 32 -49 20 -39 -15 -58 7 -50 58 4
23 10 42 15 42 5 0 18 -13 31 -30z m-466 9 c3 -6 2 -15 -2 -19 -12 -12 -38 5
-30 19 9 14 23 14 32 0z m459 -169 c9 -15 -14 -40 -36 -40 -27 0 -35 21 -14
37 22 16 41 17 50 3z m-256 -92 c-1 -18 2 -43 6 -55 10 -31 -31 -41 -75 -18
-23 12 -35 14 -43 6 -6 -6 -19 -11 -30 -11 -31 0 -18 45 13 46 14 0 39 14 57
32 17 18 41 32 52 32 17 0 21 -6 20 -32z m181 -18 c13 -8 13 -11 -2 -27 -21
-20 -45 -5 -35 21 7 18 16 20 37 6z m181 -30 c10 -6 19 -15 19 -20 0 -14 -34
-12 -48 2 -26 26 -7 37 29 18z m-341 -139 c-6 -12 -19 -21 -28 -19 -24 5 -28
39 -6 55 15 11 20 11 32 -1 11 -11 11 -18 2 -35z m-232 -13 c-6 -18 -28 -21
-28 -4 0 9 7 16 16 16 9 0 14 -5 12 -12z m-22 -83 c8 -19 19 -35 24 -35 6 0
10 -8 10 -17 0 -12 -15 -24 -43 -36 -52 -21 -63 -21 -105 1 l-33 18 55 52 c30
29 60 52 66 52 6 0 18 -16 26 -35z"/>
<path d="M2860 939 c0 -5 5 -7 10 -4 6 3 10 8 10 11 0 2 -4 4 -10 4 -5 0 -10
-5 -10 -11z"/>
<path d="M1580 930 c0 -5 5 -10 10 -10 6 0 10 5 10 10 0 6 -4 10 -10 10 -5 0
-10 -4 -10 -10z"/>
<path d="M4275 262 c-27 -19 -117 -85 -199 -146 l-150 -111 199 -3 c109 -1
200 -1 202 1 2 2 2 70 1 150 l-3 145 -50 -36z"/>
<path d="M453 259 c-25 -9 -27 -16 -14 -38 12 -18 37 -8 44 18 6 26 -1 31 -30
20z"/>
</g>
</svg>
